/* XPM */
static char *b71d52af42b94252e1bd811cd4e0e38d[] = {
/* columns rows colors chars-per-pixel */
"45 43 256 2 ",
"   c #030101",
".  c #0C0201",
"X  c #0A0706",
"o  c #130A02",
"O  c #1C0C04",
"+  c #140704",
"@  c #181309",
"#  c #111016",
"$  c #220D02",
"%  c #241A0C",
"&  c #2B1C0B",
"*  c #281504",
"=  c #341C0A",
"-  c #2F1A12",
";  c #32230C",
":  c #38290B",
">  c #2E2514",
",  c #3B2B13",
"<  c #3D2D1D",
"1  c #382616",
"2  c #3B321C",
"3  c #3D3316",
"4  c #29230A",
"5  c #0A162B",
"6  c #0F222D",
"7  c #2C2A24",
"8  c #392A22",
"9  c #3B3526",
"0  c #2E342D",
"q  c #491A10",
"w  c #412818",
"e  c #572E18",
"r  c #42341C",
"t  c #49361A",
"y  c #553A1B",
"u  c #452B0B",
"i  c #653200",
"p  c #443523",
"a  c #4C3B24",
"s  c #4A3A2A",
"d  c #453927",
"f  c #523D27",
"g  c #4C3431",
"h  c #643F2E",
"j  c #3F401F",
"k  c #3E442E",
"l  c #55421E",
"z  c #4E4218",
"x  c #765606",
"c  c #7C6412",
"v  c #4D4025",
"b  c #4A432B",
"n  c #544325",
"m  c #54422C",
"M  c #56482E",
"N  c #5A492A",
"B  c #4B4436",
"V  c #544533",
"C  c #554B33",
"Z  c #5C4C34",
"A  c #534C3C",
"S  c #5C4E3B",
"D  c #594538",
"F  c #56523D",
"G  c #5D523B",
"H  c #595336",
"J  c #654A29",
"K  c #674B37",
"L  c #655336",
"P  c #63533B",
"I  c #6A523C",
"U  c #6A583B",
"Y  c #735939",
"T  c #695127",
"R  c #6C623A",
"E  c #00144A",
"W  c #4B4744",
"Q  c #544C41",
"!  c #5B4D41",
"~  c #564748",
"^  c #545242",
"/  c #5C5544",
"(  c #5B5B4A",
")  c #5A5749",
"_  c #5D5C57",
"`  c #504E54",
"'  c #614F42",
"]  c #635443",
"[  c #695542",
"{  c #655B43",
"}  c #6B5B44",
"|  c #65554C",
" . c #635B4C",
".. c #6B5C4B",
"X. c #6F534E",
"o. c #725D4A",
"O. c #675C53",
"+. c #755D54",
"@. c #5B614C",
"#. c #64634C",
"$. c #6A644C",
"%. c #696748",
"&. c #73634D",
"*. c #72694A",
"=. c #79674A",
"-. c #6C6354",
";. c #6B6D5C",
":. c #696657",
">. c #746354",
",. c #736B53",
"<. c #7B6C54",
"1. c #74645A",
"2. c #746B5B",
"3. c #7A6C5B",
"4. c #796655",
"5. c #74725D",
"6. c #7B735C",
"7. c #797457",
"8. c #7A724C",
"9. c #535D60",
"0. c #686A61",
"q. c #7C6D63",
"w. c #746B63",
"e. c #6A7566",
"r. c #767563",
"t. c #7C7264",
"y. c #7C7C6C",
"u. c #797867",
"i. c #677974",
"p. c #777D76",
"a. c #5D726F",
"s. c #903202",
"d. c #B05306",
"f. c #B15B20",
"g. c #A3602B",
"h. c #A37608",
"j. c #C25704",
"k. c #CF6603",
"l. c #9E3D74",
"z. c #806E58",
"x. c #82745B",
"c. c #85795B",
"v. c #80664B",
"b. c #827363",
"n. c #837A62",
"m. c #857C6C",
"M. c #8A7D6D",
"N. c #887866",
"B. c #847A76",
"V. c #806E60",
"C. c #F2585E",
"Z. c #ED5878",
"A. c green",
"S. c #7C846B",
"D. c #788277",
"F. c #6C837B",
"G. c #A5800C",
"H. c #EF9C0A",
"J. c #D9AD07",
"K. c #FFAC08",
"L. c #D3BC24",
"P. c #FFDF03",
"I. c #FEE105",
"U. c #83836C",
"Y. c #89836D",
"T. c #8B886A",
"R. c #92886C",
"E. c #848574",
"W. c #8C8474",
"Q. c #8A8B73",
"!. c #8C8679",
"~. c #848C7B",
"^. c #8C8D7A",
"/. c #84867C",
"(. c #938473",
"). c #938C74",
"_. c #948C7B",
"`. c #9A8A73",
"'. c #899379",
"]. c #93937D",
"[. c #9A937B",
"{. c #979879",
"}. c #94956D",
"|. c #A2947C",
" X c #B9A77C",
".X c #3C688C",
"XX c #596594",
"oX c #C05F94",
"OX c #FE7497",
"+X c #F17EB5",
"@X c #799996",
"#X c #898B84",
"$X c #8C9583",
"%X c #899788",
"&X c #959C83",
"*X c #9C9B84",
"=X c #939C8C",
"-X c #979686",
";X c #989991",
":X c #899F96",
">X c #A29B83",
",X c #A99D85",
"<X c #A39D8A",
"1X c #A89B89",
"2X c #A99D96",
"3X c #8EA18C",
"4X c #9CA28D",
"5X c #9AA387",
"6X c #9EAA9A",
"7X c #99A698",
"8X c #88A198",
"9X c #A4A385",
"0X c #A3A48C",
"qX c #ADA48B",
"wX c #A9A98A",
"eX c #B2A688",
"rX c #A4A493",
"tX c #A5AC95",
"yX c #ACAB93",
"uX c #A4AB9C",
"iX c #ADAC9A",
"pX c #A8A595",
"aX c #B2AE9D",
"sX c #B2AB96",
"dX c #ABB49A",
"fX c #B3B39C",
"gX c #B7B29B",
"hX c #9DA8A7",
"jX c #9CB1A5",
"kX c #A4ABA3",
"lX c #ABB4A5",
"zX c #A9B6A8",
"xX c #B9B4A1",
"cX c #B2BDAB",
"vX c #BABCAB",
"bX c #B6B7A5",
"nX c #A8BDB7",
"mX c #B5BCB3",
"MX c #B1ADA2",
"NX c #CC9980",
"BX c #C0B7A5",
"VX c #EA95AD",
"CX c #B8C2AB",
"ZX c #BCC5B6",
"AX c #C2C1AC",
"SX c #C3CCB9",
"DX c #C6C8B7",
"FX c #D2D2BA",
"GX c #FCB3D0",
"HX c #B2CCC6",
"JX c #A6FFFF",
"KX c #C3CDC6",
"LX c #C9D5C8",
"PX c #CED8CE",
"IX c #DFE1CC",
"UX c #DBF2E9",
/* pixels */
"eXrXsXA.A.A.A.A.A.A.A.A.A.A.A.A.A.A.A.A.A.A.A.A.A.A.A.A.A.A.A.A.A.A.A.A.A.A.A.A.A.A.A.A.A.",
"A.tX].<X0XfXvXA.A.A.A.A.A.A.A.A.A.A.A.A.A.A.A.A.A.A.A.A.A.A.A.A.A.A.A.A.A.A.A.A.A.A.A.A.A.",
"A.A.W.4X6XzXzXmXZXA.A.A.A.A.A.A.A.A.A.A.A.A.A.A.A.A.A.A.A.A.A.A.A.A.A.A.A.A.A.A.A.A.A.A.A.",
"A.A.A.R.bX6XzXdXkXzXcXZXPXDXPXAXA.A.A.A.A.A.A.yXvX-X,XAXBX XA.A.A.A.A.A.A.A.A.A.A.A.A.A.A.",
"A.A.A.m ,.{.mXZXlXzXkXZXzXwXiXQ.bXfXA.A.qXwXxX}.Q.).iXyXxXB uXbXyXeXA.A.A.A.A.A.A.A.A.A.A.",
"A.A.A.A.R I J 1.f Z }.0X*X0X{.[.0X0X-X_.c.6.U.`.wXy.Q.R.M.wX).iX0XiXCXA.A.A.A.A.A.A.A.A.A.",
"A.A.A.A.A.T I O.| Z < o...1.M.&.n.z.<.c.c.W.n.6.).3.| W.[.-X).fX>XbXMX[.AXA.A.A.A.A.A.A.A.",
"A.A.A.A.A.A.I y D M s f =.P 1.} >.} >.4.n.8.x.&.| } <.q._.).M.>X_.0X}.0XbXxXgXBXA.A.A.A.A.",
"A.A.A.A.A.A.A.J u y ! Z V.q.[ [ } t.Y L } Y.S <...,.[ $.(.M.M.z.(.b.[.(.0XsXfXFXSXLXcXA.A.",
"A.A.A.A.A.A.A.Y u = ] `.R V.o.&.} U <.X.} / P 8.| ..q.z.3.<.v.U =.M.`.b.(.|.eXvXFXLXPXlXA.",
"A.A.A.A.A.A.A.l w w V =...d Z K ] } x.>.K -.m.[ 3.,.S ] x.c.N.=.&.=.M.c.M.|.|.1XZXCXSXDXAX",
"A.A.A.A.A.A.A.y u = s f l K =.o.=.=.>.>.-.n.| x.=.w.8.2.o.b.q.4.=...z.<.T.`.>XyXyXsX1X|.eX",
"A.A.A.A.A.A.A.; * t = n t f T [ ..+.3.4.) o.M.4.6._ 2.y.<.-.-.=.} 4.4.,.R.x.[.>X9XyX,X[.1X",
"A.A.A.A.A.A.A.% & w V r , l L L ] c.O.4.5.Q.<.3.4.} 5.m.x.} &.3.Y Z [ 4.x.).Q.yXxX1X,X|.A.",
"A.A.A.A.A.A.U m v A < r m 4.b...{ o.>.{.1.).].^.W.,.{ 5.Y.1.! ' | Z L 4.3._.iXiXbX1XeXeXA.",
"A.A.A.A.A.A.f <.u.E.S a m ..(.<.(.w.m.!.!.5X(.V.M.-.{ Z 5.&. .m ' a ' &.x._.qX6XpXsX,XaXA.",
"A.A.A.A.A.A.P }.^.;X^.,.! U Z | m.>.B.6.P &.q.t.6.m P ) 5.| D Z N d | P *.`.<XvXiXiXrXeXA.",
"A.A.A.A.A.A.Q.].y.U.Q.^.S.;.,.<.D ) ..t.m.N.&.{ G d ^ C a / b t v d U Z 1.M.Y.<XiXMXxX1XA.",
"A.A.A.A.A.A.W.6.b.5.$.].pX$Xm.y.B , V J 1 + + * P r , 3 > b d 9 7 8 H -.<.V.V._.MXvXxXsXA.",
"A.A.A.A.A.A.6.] u.w.^. .-.b.;Xy.) ; e   j.h.d.- W A N F % j j p 2 1 m [ | b.V.M.[.aXBXxXA.",
"A.A.A.A.A.A.o.,.1.n ,./ / :.;.@.p.p.;XK.5 % 8Xc s.8 &.u.H % 9 9 2 m / 1.3.:.e.^.0X&XsXSXA.",
"A.A.A.A.A.A.O.2...P N b | e.&X6X#XqX` J.X   6 E j.~ B p.#.9 > s d C 0.^.&X4.W 7 = f *XDXA.",
"A.A.A.A.A.A.L Z N r m m < / 6.y.3X&XhXI.  + f h.j.` ) w.y./ b #.) -.U.4X>Xi H.x s.J B.xXFX",
"A.A.A.A.A.L =.t V a 2 3 M M H ~./.=X'.  I.x H.k.XX~ #X0.'.-.@.;.y.Q.tXiX.Xx @ JX9 f.2X*XDX",
"A.A.A.A.A.D [ M F l 2 M m 2 b B u.0.;.hX6 q ; 6 0.X.G :.:.%.^ W 5.n.-Xt.# >     5 g.vX>XvX",
"A.A.A.A.A.N U Z ] M ! P Z P { b S ;. .U.{.dXCXuXnX#.%._ F F k ^ #.Q.%X2X# G.X X c NXIXlXmX",
"A.A.A.A.A.A.I [ ..%.R G C C ^ a #.^  .u.S.$X7X$Xy.S.@.A B ) A A A F #XzXLXk.J.L.d.bXlXZXA.",
"A.A.A.A.A.A.f U V Z O.P 2 C d Z n *._ e.e.( O.5.;.;.F.#.H H ,.@.$.w.5XrXcXzX8 g mXrX-XKXA.",
"A.A.A.A.A.A.n m C n : M G B { & Z :.7.0.F A 5.D.D.7X#X3XA  .B.) I M.-X%XmX=X9X-Xm.E.rXmXA.",
"A.A.A.A.A.A.A.a G >.2 B a b b * > 0.#.2 #.F.F.jX:X3X:XjXo O e X.B.g zXPXuXuXrX!.2.E.vXA.A.",
"A.A.A.A.A.A.A.s Z $.*. .< H 2 3 ; 3 9 ^ ^ F.%X0 ~.:X~.D.+.+ X q   1 jXZXzXQ.yX^.$XrXbXA.A.",
"A.A.A.A.A.A.A.] s U $.r.5.8 v < = ; a W.'.r.'.$X&X3XD.'.$.M.= w *.;X6XKXKXdXMXyX;XyXA.A.A.",
"A.A.A.A.A.A.A.A.f p a 2.,. .< @ % & ; G jXuXD.'.'.jX$Xp.^.E.D jXpX$XmX%X#X5X4XdX&XgXA.A.A.",
"A.A.A.A.A.A.A.A.A.8 a 2 ..Z r = 9 D.B R t.e.b 2 b 5.p.u.^.M.= | #XtX~.=XCXSXmX=X0XA.A.A.A.",
"A.A.A.A.A.A.A.A.A.y p , d n z F.# F.& 8 hXF.nX;.-X2.#...+.N 8 1.Q.#.dXqX4XM.4XS.gXA.A.A.A.",
"A.A.A.A.A.A.A.A.A.A.Q < 4 U., $ W % . i.%XuX9 F n.Z r o GXoXl.K q.u.'.w.y.zXCX0XA.A.A.A.A.",
"A.A.A.A.A.A.A.A.A.A.A.o _ ,   0.% X i.F.O.k 0.Q , O $ + OX+X+XVXN ..|.kX5.lX7XDXA.A.A.A.A.",
"A.A.A.A.A.A.A.A.A.A.A.A.A.O ( o 0 7 0 ` a.* ( P ; O O *   C.Z.o 4 L D Q.UX0XvXA.A.A.A.A.A.",
"A.A.A.A.A.A.A.A.A.A.A.A.A.A.O a.e.p.@ % O 9 5.a D 1 u 1 X.M.+.y $.y.SXD.kX<XA.A.A.A.A.A.A.",
"A.A.A.A.A.A.A.A.A.A.A.A.A.A.A.A.i.@ k F.< i.( V V t J 1.+.2.q.6.S./.HX4XcXA.A.A.A.A.A.A.A.",
"A.A.A.A.A.A.A.A.A.A.A.A.A.A.A.A.A.9.+ O > 8X= r a T f L x.| ) 2.3.#XjXKXA.A.A.A.A.A.A.A.A.",
"A.A.A.A.A.A.A.A.A.A.A.A.A.A.A.A.A.A.A.m   > O s ; m S G -./ _ -.y.A.A.A.A.A.A.A.A.A.A.A.A.",
"A.A.A.A.A.A.A.A.A.A.A.A.A.A.A.A.A.A.A.A.A.A.A.r 8 ' A P -./ A.A.A.A.A.A.A.A.A.A.A.A.A.A.A."
};
